<?xml version="1.0" encoding="utf-8"?>
<!-- Generator: Adobe Illustrator 15.0.0, SVG Export Plug-In . SVG Version: 6.00 Build 0)  -->
<!DOCTYPE svg PUBLIC "-//W3C//DTD SVG 1.1//EN" "http://www.w3.org/Graphics/SVG/1.1/DTD/svg11.dtd">
<svg version="1.1" id="レイヤー_1" xmlns="http://www.w3.org/2000/svg" xmlns:xlink="http://www.w3.org/1999/xlink" x="0px"
	 y="0px" width="46.26px" height="42.617px" viewBox="-0.793 -1 46.26 42.617" enable-background="new -0.793 -1 46.26 42.617"
	 xml:space="preserve">
<path d="M44.301,19.441L22.67,0.127c-0.024-0.021-0.053-0.032-0.08-0.048c-0.023-0.014-0.043-0.031-0.069-0.042
	c-0.055-0.022-0.114-0.033-0.173-0.035C22.344,0.002,22.341,0,22.337,0s-0.007,0.002-0.011,0.002
	c-0.059,0.001-0.118,0.013-0.173,0.035c-0.026,0.01-0.047,0.028-0.07,0.042c-0.026,0.016-0.055,0.026-0.079,0.047L0.373,19.441
	c-0.206,0.184-0.224,0.5-0.04,0.706c0.185,0.207,0.5,0.223,0.706,0.04l20.798-18.57v38.5c0,0.276,0.224,0.5,0.5,0.5
	s0.5-0.224,0.5-0.5v-38.5l20.799,18.571c0.096,0.085,0.214,0.127,0.333,0.127c0.138,0,0.274-0.056,0.373-0.167
	C44.525,19.941,44.507,19.625,44.301,19.441z"/>
</svg>
