<?xml version="1.0" encoding="utf-8"?>
<!-- Generator: Adobe Illustrator 15.0.0, SVG Export Plug-In . SVG Version: 6.00 Build 0)  -->
<!DOCTYPE svg PUBLIC "-//W3C//DTD SVG 1.1//EN" "http://www.w3.org/Graphics/SVG/1.1/DTD/svg11.dtd">
<svg version="1.1" id="レイヤー_1" xmlns="http://www.w3.org/2000/svg" xmlns:xlink="http://www.w3.org/1999/xlink" x="0px"
	 y="0px" width="25.203px" height="25.197px" viewBox="0 0 25.203 25.197" enable-background="new 0 0 25.203 25.197"
	 xml:space="preserve">
<path id="Icon_awesome-instagram" fill="#100F0F" d="M12.605,6.138c-3.568,0-6.46,2.892-6.46,6.46c0,3.567,2.892,6.46,6.46,6.46
	s6.459-2.893,6.459-6.46c0.006-3.563-2.877-6.455-6.439-6.46C12.618,6.138,12.612,6.138,12.605,6.138z M12.605,16.798
	c-2.319,0-4.2-1.88-4.2-4.199c0-2.32,1.881-4.2,4.2-4.2c2.32,0,4.2,1.88,4.2,4.2l0,0C16.801,14.916,14.923,16.794,12.605,16.798z
	 M20.835,5.874c-0.003,0.833-0.68,1.505-1.512,1.502c-0.833-0.003-1.505-0.68-1.503-1.512c0.004-0.831,0.678-1.503,1.509-1.502
	c0.828-0.003,1.503,0.665,1.506,1.494C20.835,5.862,20.835,5.868,20.835,5.874z M25.113,7.403c0.042-1.959-0.689-3.855-2.034-5.279
	c-1.427-1.341-3.321-2.071-5.28-2.035c-2.08-0.117-8.316-0.117-10.4,0c-1.958-0.038-3.853,0.69-5.28,2.03
	C0.777,3.545,0.048,5.44,0.088,7.397c-0.118,2.08-0.118,8.315,0,10.399c-0.042,1.959,0.689,3.855,2.035,5.279
	c1.429,1.34,3.324,2.069,5.282,2.032c2.08,0.118,8.316,0.118,10.4,0c1.959,0.042,3.855-0.689,5.28-2.035
	c1.341-1.427,2.071-3.321,2.035-5.279c0.118-2.08,0.118-8.31,0-10.39L25.113,7.403z M22.427,20.025
	c-0.433,1.099-1.302,1.968-2.399,2.4c-1.659,0.657-5.594,0.506-7.427,0.506c-1.833,0-5.774,0.146-7.427-0.506
	c-1.098-0.433-1.968-1.302-2.4-2.4c-0.658-1.659-0.506-5.594-0.506-7.427S2.121,6.824,2.773,5.171
	c0.432-1.098,1.302-1.968,2.4-2.399c1.659-0.658,5.594-0.506,7.427-0.506c1.833,0,5.774-0.146,7.427,0.506
	c1.098,0.432,1.967,1.302,2.399,2.399c0.658,1.659,0.507,5.595,0.507,7.428S23.084,18.372,22.427,20.025z"/>
</svg>
