<?xml version="1.0" encoding="UTF-8"?>
<svg id="_レイヤー_1" data-name="レイヤー_1" xmlns="http://www.w3.org/2000/svg" version="1.1" viewBox="0 0 205.3 38.1">
  <!-- Generator: Adobe Illustrator 29.1.0, SVG Export Plug-In . SVG Version: 2.1.0 Build 142)  -->
  <defs>
    <style>
      .st0 {
        isolation: isolate;
      }
    </style>
  </defs>
  <g class="st0">
    <path d="M29.5,37.3v-.7l2.2-.6c2.1-.6,2.5-.9,2.4-5.2l-.5-19.1v-4.5h0c-.4,1-1,2.7-1.6,4.4l-10.2,25.7h-1.9L9.6,12.2c-.6-1.6-1.3-3.2-1.7-4.4h0v4.6l-.2,11.5c-.2,10.4.4,11.5,2.5,12.1l2.5.6v.7H.3v-.7l2.2-.6c2-.6,2.2-1.6,2.4-9.7l.3-16.3c0-4.2-.8-4.6-2.9-5.2l-2.3-.5v-.7h11.4l8.7,22.1c.5,1.3,1.6,3.9,1.7,5.1h.1c.1-1,1.2-3.5,1.9-5.2L32.6,3.5h10.6v.7l-2.2.6c-2.1.5-2.5.9-2.4,5.2l.5,20.9c0,4.3.3,4.6,2.4,5.2l2.2.6v.7h-14.2Z"/>
    <path d="M60.2,37.3h-13.3v-.7l2.2-.6c2.1-.6,2.4-.9,2.4-5.2V10.1c0-4.3-.3-4.7-2.4-5.2l-2.2-.5v-.7c4.6-.2,9.3-.3,13.9-.3s12,.9,12,7.5-5,7-7.2,7.6v.2c4.4.1,8.8,3.1,8.8,8.4,0,7.5-7.4,10.2-14.2,10.2ZM59.1,5.2c-.9,0-1.7,0-2.6,0v13.1h3c4.3,0,7.8-2,7.8-6.7,0-5-3.8-6.5-8.2-6.5ZM60,20.2h-3.4v10.2c0,4.7.7,5.2,2.8,5.2h.8c4.3,0,8.5-1.9,8.5-7.8,0-6.3-4.3-7.6-8.7-7.6Z"/>
    <path d="M102.2,37.6l-5.5-14.4-5.3,14.4h-3l-7.2-18.8c-1.4-3.7-1.7-4.1-2.8-4.5l-1.2-.5v-.6h11.2v.6l-1.9.5c-1.5.4-1.7,1.3-.2,5.5l3.6,10c.7,1.9.9,2.6,1,3.5h0c0-.9.4-1.4,1.1-3.6l3.3-9.6-.5-1.3c-1.4-3.7-1.7-4.1-2.8-4.5l-1.2-.5v-.6h11.2v.6l-1.9.5c-1.5.4-1.7,1.3-.2,5.5l3.6,10c.7,1.9.9,2.6,1,3.5h0c.2-.9.4-1.4,1.1-3.6l3.4-9.9c1.6-4.5.9-5.1-.7-5.5l-1.9-.5v-.6h9.1v.6l-1.1.5c-1,.5-1.4.8-2.8,4.5l-6.9,18.8h-2.7Z"/>
    <path d="M128,38.1c-7.2,0-11.7-4.9-11.7-12.3s4.9-13.7,12.6-13.7,11.7,5,11.7,12.4c0,7.3-4.9,13.6-12.6,13.6ZM127.7,13.9c-4.9,0-6.5,4.8-6.5,9.2s2.1,13.3,7.9,13.3,6.8-5,6.8-9.4-2.3-13.1-8.2-13.1Z"/>
    <path d="M144,37.3v-.6l1.9-.5c1.8-.5,2-.8,2-4.4v-12.6c0-3.6-.7-3.9-2.6-4.3l-2.1-.5v-.6l8.3-1.2.3.2v4h.1c2.4-3,4.3-4.5,6.7-4.5s3.2,1.3,3.2,3-1.3,2.7-2.7,2.7h-.2c-.5-1.2-1.6-2-3-2-2.1,0-3.6,1.6-3.6,3v12.7c0,3.6.5,3.8,2.2,4.2l2.9.7v.6h-13.4Z"/>
    <path d="M163.3,37.3v-.6l1.9-.5c1.8-.5,2-.8,2-4.4V6.6c0-3.7-.3-3.9-2.1-4.3l-2.1-.5v-.6l8.2-1.2.3.2v31.6c0,3.6.2,4,2,4.4l1.9.5v.6h-12.1ZM181.2,37.3l-9.2-13.5,5.2-5c3.1-2.9,2.7-4.1,1.4-4.4l-1.9-.5v-.6h11.3v.6l-2,.5c-1.8.5-3.3,1.8-5.9,4.4l-4.1,3.9,6.6,9.1c2.2,3,2.9,3.9,4.6,4.5l1.5.5v.6h-7.5Z"/>
    <path d="M196.8,37.8c-1.8,0-4.5-.5-6-1.3l-.5-6.4,1-.2.7,2c.6,1.9,1.8,3.9,5.2,3.9s4.7-1.5,4.7-4-2.8-4.1-6-5.7c-3-1.5-5.4-3.2-5.4-6.7s3.9-6.9,7.9-6.9,3.2.2,5.4,1.2v5.9h-.9l-.5-1.9c-.5-2-1.7-3.2-4.5-3.2s-4,1.5-4,3.3,2.1,3.3,6.1,5.2c3.5,1.7,5.4,3.5,5.4,7.2,0,3.8-3.3,7.6-8.6,7.6Z"/>
  </g>
</svg>